<svg version="1.1" id="Layer_1" xmlns="http://www.w3.org/2000/svg" xmlns:xlink="http://www.w3.org/1999/xlink" x="0px" y="0px"
	 width="100%" viewBox="0 0 1024 1024" enable-background="new 0 0 1024 1024" xml:space="preserve">
<path fill="#000000" opacity="1.000000" stroke="none" 
	d="
M310.984436,203.033997 
	C308.956238,203.026306 307.644836,204.382553 306.244934,205.548676 
	C297.416077,212.903290 287.520844,218.899719 279.149811,226.843140 
	C278.114502,227.825546 276.800781,228.514542 275.289612,228.938828 
	C286.032166,217.441925 298.485260,207.919388 310.566742,197.963394 
	C292.683533,209.194016 277.582764,223.743774 262.312439,238.585602 
	C265.341736,240.035385 264.018951,242.009323 262.505280,243.277557 
	C253.892654,250.493805 248.959061,261.503662 238.017395,266.412170 
	C233.928970,268.246277 231.793655,272.794098 228.695267,276.035522 
	C225.796722,279.067871 222.492264,280.701141 218.220474,281.104797 
	C208.884537,281.986938 201.295364,286.492371 196.401413,294.407898 
	C189.463989,305.628540 179.960114,314.927063 173.328064,326.368103 
	C168.739120,334.284546 171.333542,340.191467 180.313828,341.093964 
	C186.060699,341.671478 191.569565,342.777435 197.359940,339.860107 
	C200.661621,338.196594 204.732956,339.654144 207.280319,343.490356 
	C210.023834,347.621948 211.696182,347.597931 214.033752,343.252594 
	C218.925232,334.159607 223.394440,324.840637 228.183487,315.691101 
	C237.668396,297.569977 250.451828,281.787323 263.330933,266.043976 
	C275.525696,251.137177 289.648193,238.304932 304.376678,226.007416 
	C311.430695,220.117645 317.843811,213.582855 326.344116,209.498352 
	C331.976440,206.791962 333.554840,200.545425 336.208954,195.330444 
	C338.566803,190.697525 340.823425,186.024612 345.658386,183.085114 
	C349.918427,180.495148 353.712250,180.606445 356.848511,184.161224 
	C360.939301,188.797913 364.710938,188.224701 369.862396,185.662537 
	C396.877472,172.226120 425.456024,163.412155 455.128510,158.131226 
	C461.487030,156.999573 467.964142,155.103683 474.116119,154.760605 
	C481.119385,154.370041 488.263702,153.827011 495.359436,153.829453 
	C507.516815,153.833664 519.691956,153.091522 531.809326,154.610413 
	C543.034973,156.017502 553.117126,151.847229 563.183350,148.044266 
	C570.408142,145.314774 577.469177,146.792313 584.722839,147.044617 
	C584.490601,150.032623 581.421448,148.420700 580.325134,150.937881 
	C587.940735,148.769745 589.845764,153.900894 591.540283,159.117386 
	C592.658081,162.558395 595.064575,163.947403 598.426025,164.751358 
	C620.837524,170.111542 642.548645,177.561615 663.510742,187.139633 
	C665.670105,188.126282 667.416321,188.129639 669.633728,187.257370 
	C684.182007,181.534424 699.439453,177.648376 713.284119,170.074493 
	C716.353516,168.395325 720.074280,169.684204 723.798584,168.926773 
	C724.822998,173.939621 723.614502,179.106918 727.332458,183.365158 
	C729.009766,185.286102 725.817200,186.576248 724.288025,187.579865 
	C717.187195,192.240173 709.994751,196.760727 702.868591,201.382980 
	C701.222839,202.450439 699.709106,203.721359 698.112183,204.915451 
	C700.029175,208.168457 702.075378,207.556824 704.413513,205.841827 
	C707.983459,203.223297 711.432068,200.371246 716.800049,198.315155 
	C713.235901,203.510635 708.223511,205.429825 704.823303,209.275192 
	C706.205200,211.739975 708.113220,211.870300 710.376953,211.217804 
	C714.216797,210.111008 718.039734,208.903519 721.938538,208.053711 
	C726.904419,206.971298 731.860840,205.717529 735.304871,211.596741 
	C736.837830,214.213699 740.892639,214.499741 742.775940,217.790466 
	C739.146362,221.809921 735.557190,225.895035 730.556274,228.811996 
	C732.037659,232.445267 734.685425,233.938873 738.291077,233.865707 
	C739.181030,240.632782 744.210938,244.028763 750.475769,241.430527 
	C746.927368,246.123596 749.848450,248.799606 752.316772,252.073349 
	C756.893616,258.143585 762.569946,262.248962 769.666809,264.914246 
	C776.829102,267.604126 783.705017,271.047668 790.777405,273.990326 
	C793.801819,275.248749 794.700439,277.079712 793.902039,280.241302 
	C791.863708,288.313599 790.006897,296.431946 788.103638,304.538025 
	C787.582092,306.759399 786.313599,308.325043 784.508301,309.728699 
	C773.332642,318.417969 762.219238,327.187653 751.118286,335.972382 
	C749.385559,337.343506 747.377808,338.570801 746.582825,340.955414 
	C749.070312,342.132477 750.409363,340.496338 751.895874,339.640045 
	C763.010742,333.237244 774.247131,327.027771 785.157898,320.292023 
	C806.411926,307.170929 829.983582,299.108948 852.587097,288.939087 
	C855.969910,287.417084 859.105774,285.602081 862.052185,283.428040 
	C864.571655,281.569031 866.648804,282.101013 869.356750,283.456329 
	C874.111023,285.835815 877.026123,288.958252 878.050659,294.393616 
	C878.522644,296.897614 882.036255,298.018951 883.614380,300.431244 
	C885.140808,302.764526 884.792053,303.865295 883.167358,306.299683 
	C876.271912,316.631744 864.356323,317.989807 854.648010,323.244171 
	C853.919617,323.638367 853.137268,323.975281 852.340271,324.193695 
	C838.030945,328.115387 828.193481,339.015808 816.571838,347.125092 
	C815.373047,347.961609 813.985046,349.033203 814.812744,350.815094 
	C815.631470,352.577362 816.973877,353.691254 819.152588,353.487274 
	C825.260925,352.915405 831.873596,351.313660 837.138916,355.017426 
	C842.670898,358.908813 848.873535,358.891449 855.351929,360.276184 
	C852.505676,364.623749 853.014954,367.816559 858.020447,369.657776 
	C859.581970,370.232178 859.872986,372.148651 859.938477,373.521942 
	C860.442505,384.092407 868.031006,391.547516 871.706177,400.707306 
	C872.346619,402.303497 874.142212,403.610291 872.700134,406.012299 
	C868.255859,403.271606 864.932373,406.414703 861.593811,408.557404 
	C857.531494,411.164490 857.911072,415.832642 860.934143,420.300262 
	C866.213562,428.102325 872.174683,435.619598 874.463135,445.085754 
	C874.970825,447.186035 876.485291,448.438599 878.143799,449.621948 
	C881.541504,452.046143 883.326233,455.360321 885.319580,459.125671 
	C889.105164,466.276276 890.991333,473.869873 893.462097,481.357208 
	C894.753601,485.270813 899.461548,483.742188 901.685486,486.571625 
	C899.987366,489.154938 897.717834,486.194275 896.124146,486.929504 
	C896.770996,492.789459 897.393005,498.424286 898.033691,504.228363 
	C900.642700,505.938263 900.266113,502.265747 901.782043,501.819946 
	C904.237122,502.704132 903.836609,504.893280 904.127441,506.811310 
	C905.029541,512.761230 905.071716,518.360474 903.429016,524.511780 
	C898.889038,541.512329 900.116394,559.171387 899.166809,576.594543 
	C898.398804,590.686707 896.394104,604.712158 894.889343,618.761963 
	C894.786133,619.725525 894.276611,620.645569 893.835022,621.940918 
	C890.244629,620.111206 889.818420,622.858215 888.952576,625.182617 
	C883.838074,638.912292 880.206299,653.224487 873.967102,666.488953 
	C863.546387,688.643433 850.010437,708.805115 832.727478,726.266357 
	C816.886536,742.270752 800.885864,758.299805 781.127502,769.412659 
	C772.953552,774.010132 764.637268,778.271118 757.017883,783.771362 
	C755.603394,784.792542 754.124939,785.058289 753.163940,783.386169 
	C751.876526,781.146179 753.968689,780.417358 755.333801,779.738708 
	C765.410706,774.729248 774.329773,768.005981 782.845642,760.791077 
	C789.758606,754.933899 796.734314,749.082825 802.777344,742.386963 
	C779.339966,759.767639 756.938904,778.648926 731.110535,792.685364 
	C730.308350,793.121338 729.329468,793.231995 727.406189,793.794739 
	C730.604248,789.717896 734.806519,788.854004 738.015259,785.545715 
	C734.770325,785.043030 733.162048,787.919800 729.294434,788.325439 
	C732.713623,784.564697 735.242859,781.473206 736.887451,777.742188 
	C740.825378,768.808594 749.316040,764.053223 756.376465,758.191650 
	C759.873230,755.288574 759.211426,750.979004 762.403992,748.108337 
	C776.067627,735.822144 787.539734,721.488037 799.143372,707.307983 
	C801.641541,704.255188 803.834900,700.953003 805.880737,697.495422 
	C792.013855,708.004944 782.538696,723.305664 767.798523,732.713867 
	C766.507141,731.761047 767.067566,731.043701 767.557556,730.414917 
	C777.057556,718.224365 785.419312,705.192871 795.807861,693.641846 
	C810.782349,676.991638 820.625793,657.266357 826.466553,635.867310 
	C831.751404,616.505249 832.503479,596.566223 830.279480,576.513245 
	C829.400940,568.591431 830.023743,560.512512 829.368164,552.554138 
	C828.582336,543.012939 829.157593,544.818359 820.476685,543.836548 
	C822.262573,545.581360 825.297546,544.429749 826.366577,547.204407 
	C824.962280,548.877075 823.112610,548.127869 821.476013,547.832703 
	C799.842773,543.931458 777.823120,542.988831 756.166504,539.277649 
	C753.639404,538.844666 751.139160,539.107361 749.983215,535.558838 
	C749.133545,532.950500 745.687805,532.782959 743.078674,532.320251 
	C734.744019,530.842163 726.052368,531.300110 718.054993,528.027039 
	C693.788513,518.095703 668.216553,513.943420 642.480164,510.121429 
	C635.318359,509.057861 628.323853,506.893036 620.958984,507.117706 
	C619.731995,507.155151 618.654907,506.654724 618.629089,504.305634 
	C629.088989,504.108887 639.474243,506.587189 651.031799,505.368896 
	C645.244324,503.978912 640.489075,503.004395 635.526794,503.049988 
	C630.198120,503.098907 624.818237,503.423218 619.553223,502.819519 
	C614.687561,502.261688 612.744385,504.710480 613.049255,508.581635 
	C613.453857,513.718628 611.507874,518.191345 609.685181,522.452393 
	C606.835510,529.114014 606.107361,536.248657 603.852539,542.944702 
	C598.481812,558.893616 588.372070,570.631165 572.576355,577.701111 
	C566.126282,580.588074 560.148254,579.509766 553.864502,579.365601 
	C551.383118,579.308716 548.924561,579.025940 546.491272,580.087891 
	C515.364563,593.673767 487.137390,587.688599 460.795288,567.653992 
	C436.889954,549.472656 425.113983,525.246033 423.814423,495.558624 
	C423.660889,492.050690 424.053741,488.594177 424.499542,485.110474 
	C425.363342,478.359802 423.124603,476.832611 416.606567,479.406189 
	C415.733673,481.583282 418.448822,481.360596 418.944733,483.106567 
	C416.120148,483.796997 414.209900,485.978821 411.526733,487.293518 
	C400.096130,492.894379 388.345398,489.397980 376.730438,489.524658 
	C375.146118,489.541931 373.500153,489.592316 371.572083,491.635895 
	C378.873779,491.587280 385.399078,489.910889 391.868347,491.961975 
	C378.130432,493.965454 364.446503,496.145172 350.427032,496.979614 
	C360.237061,500.986725 370.943909,500.240082 381.149628,502.816650 
	C373.763184,505.035919 366.899536,508.288300 358.820679,507.822571 
	C342.362671,506.873749 325.704773,505.609344 309.456696,508.599915 
	C295.412445,511.184753 281.239044,512.863770 267.224579,515.571899 
	C260.034576,516.961304 252.506607,516.000366 245.387039,516.865601 
	C233.029022,518.367432 221.395798,514.393005 209.350754,514.272339 
	C206.074142,514.239502 202.822662,513.078064 199.533096,512.629150 
	C194.810440,511.984589 193.083282,513.434631 192.928696,518.183716 
	C191.847763,551.390442 197.130615,583.501587 209.848038,614.263367 
	C222.070633,643.828064 234.587646,673.227417 252.473114,700.020142 
	C287.156952,751.977112 331.299805,793.658630 386.268799,823.525818 
	C418.374603,840.970276 452.789093,851.373901 489.068390,855.791016 
	C513.616943,858.780029 538.237671,859.713135 562.833008,857.537354 
	C602.814087,854.000549 640.563599,842.785339 675.492310,822.679199 
	C678.148621,821.150208 680.872986,819.739319 684.755615,817.625854 
	C683.203674,821.306458 680.988586,822.189880 679.145264,823.352539 
	C645.313416,844.691772 608.365967,856.877502 568.700317,861.479614 
	C533.239502,865.593872 497.884857,865.655457 462.821350,858.715454 
	C412.013245,848.659180 366.799652,826.429504 326.321472,794.285950 
	C310.922394,782.057739 295.863647,769.466125 281.631348,755.669617 
	C283.042633,757.232727 284.410736,758.837463 285.871826,760.352539 
	C301.963409,777.038330 320.116150,791.581787 336.537415,807.779480 
	C348.710754,819.787048 362.851074,827.212280 377.459595,834.176697 
	C409.718323,849.555542 444.111694,857.839294 479.446838,862.829895 
	C499.612488,865.677979 519.852112,866.527344 540.099792,867.968872 
	C551.892944,868.808594 563.267456,866.642151 574.852478,866.323242 
	C581.331177,866.144836 587.671082,868.342590 591.745422,873.591370 
	C588.251160,874.480713 585.435974,871.234253 582.132629,872.486572 
	C583.090088,873.756348 585.286194,873.120239 586.326172,875.810425 
	C580.659241,875.026550 575.363953,875.198975 570.702454,878.938965 
	C578.153870,882.267334 585.884766,880.282410 594.896667,879.929749 
	C590.413025,883.979309 586.383789,886.275208 581.611267,886.684021 
	C566.211548,888.003113 550.831543,890.376099 535.314148,888.275024 
	C514.092407,885.401489 492.912994,882.419373 471.896240,878.087891 
	C453.740112,874.346008 436.237762,868.746094 418.572296,863.349915 
	C400.373138,857.790771 382.646973,851.151550 364.977478,844.233215 
	C364.063843,843.875488 362.765015,843.197449 362.164581,843.550781 
	C357.451202,846.324097 353.625580,843.158264 349.413483,841.599426 
	C349.720428,843.175842 351.820679,843.425842 351.040344,845.674805 
	C341.972870,842.245300 334.236359,836.495728 325.448669,831.436157 
	C325.824890,832.513184 326.078003,833.237732 326.770325,835.219604 
	C305.646973,823.832214 286.701935,810.996582 268.255554,797.245972 
	C270.253265,801.194641 273.084442,804.342407 276.438019,807.100403 
	C279.911865,809.957153 283.254425,812.973022 286.688324,815.879211 
	C290.121429,818.784607 293.558929,821.687134 297.063843,824.504700 
	C300.533356,827.293823 304.089417,829.975403 307.942444,832.963867 
	C305.966217,834.314880 304.696259,833.232422 303.549530,832.659912 
	C288.781219,825.288025 275.181824,816.407104 262.494354,805.597046 
	C232.374115,779.933411 209.217590,748.942078 189.389084,715.090576 
	C184.669968,707.034058 180.328293,698.787109 175.827316,690.619080 
	C170.180832,680.372253 168.660004,668.918457 165.705505,657.847839 
	C160.428925,638.076355 158.403870,617.743469 154.490875,597.746521 
	C153.312134,591.722717 151.499939,585.778137 149.465027,579.977112 
	C146.417465,571.289307 145.033859,562.226929 142.892151,553.338745 
	C141.972122,549.520630 140.787292,545.613525 143.255829,541.726807 
	C143.819763,540.838867 143.259430,539.150146 143.034576,537.861755 
	C141.415695,528.585938 141.801086,519.407837 143.880524,510.323273 
	C145.745544,510.199860 145.059708,512.021545 146.153519,512.364685 
	C147.474243,511.619995 145.978043,509.744080 147.407349,509.003967 
	C147.653473,509.108002 148.110077,509.163055 148.168365,509.345398 
	C151.583084,520.028015 158.063766,529.295227 162.141525,539.675720 
	C164.577301,545.876343 163.639816,552.674194 166.191345,558.953857 
	C168.915344,565.657776 171.748489,572.369385 172.977798,579.646240 
	C173.535217,579.560120 174.092621,579.473999 174.650040,579.387878 
	C174.650040,575.352661 174.591675,571.316467 174.662979,567.282532 
	C174.786667,560.285828 174.892517,553.285828 175.227158,546.297852 
	C175.314987,544.463989 175.425232,541.878784 178.672379,542.443604 
	C179.511887,531.847473 181.598938,521.082031 183.273727,510.207977 
	C179.957779,508.060303 176.478958,507.241974 172.750397,507.245605 
	C169.009872,507.249237 166.193146,505.895416 165.542160,501.847107 
	C165.250900,500.035858 164.415955,499.308868 162.584641,499.261719 
	C158.509705,499.156891 155.947723,496.847260 153.973709,493.414856 
	C151.658569,489.389282 149.012848,485.553833 146.416443,481.488647 
	C149.486420,478.895111 153.236969,477.292297 155.193069,473.528931 
	C151.175232,470.655762 147.667389,474.566010 143.950668,473.863007 
	C146.261032,468.060638 154.679428,467.010651 154.669983,459.098450 
	C158.048859,458.482117 160.947525,456.377808 162.023056,452.195282 
	C160.173569,451.379608 158.841492,453.520630 156.383057,452.300598 
	C160.383072,449.186676 160.833038,445.437592 158.363770,441.299988 
	C157.505508,439.861847 156.946594,438.078888 155.087082,437.841339 
	C153.264389,437.608551 152.732422,439.386780 151.898666,440.578064 
	C150.318726,442.835510 148.750870,445.101410 146.387100,448.501434 
	C145.977280,443.693665 145.300446,440.384491 142.631409,437.942993 
	C142.304276,437.643707 142.011948,436.965240 142.120758,436.580505 
	C144.569077,427.924622 139.939880,418.693054 144.501526,410.142609 
	C147.950500,403.677826 152.069595,398.724121 160.151505,398.347900 
	C163.298660,398.201416 165.378494,395.563019 166.787842,392.807312 
	C168.693893,389.080444 170.584778,385.402161 174.337128,383.105835 
	C175.014297,382.691498 175.751572,381.970764 175.955688,381.248596 
	C179.226212,369.678162 189.847382,363.354401 195.675339,353.601440 
	C197.039062,351.319244 198.555054,349.171234 199.793777,345.643585 
	C192.919891,350.452606 186.665741,354.597473 180.672592,359.090515 
	C175.441727,363.012146 169.725967,366.002136 163.916916,368.880585 
	C163.471451,369.101349 162.825256,369.606659 162.590622,369.462311 
	C156.939362,365.985992 154.836304,371.370819 152.104721,374.009460 
	C138.030167,387.605225 122.777092,399.693115 105.206573,408.273163 
	C98.872894,411.366058 91.411949,414.451202 83.809357,410.587830 
	C82.829758,410.090027 81.526375,409.856415 81.456673,408.348724 
	C91.722473,408.182739 94.482117,406.911591 99.965179,399.633911 
	C97.292366,399.328979 95.419846,400.943909 93.314636,401.597198 
	C91.175735,402.260925 89.386040,404.076965 86.310883,402.645386 
	C91.312607,399.774109 97.574150,397.922211 100.957115,393.741150 
	C104.254196,389.666260 108.885284,386.060089 110.308037,380.152985 
	C95.989685,386.088226 80.694931,390.121948 72.468895,405.524353 
	C72.203285,405.158478 71.937668,404.792633 71.672050,404.426758 
	C73.047615,399.526154 74.431999,394.627960 75.793869,389.723541 
	C76.258583,388.049957 77.131310,386.689789 78.607872,385.741333 
	C78.887962,385.561371 79.134819,385.324280 79.426216,385.168030 
	C96.839813,375.831360 109.237045,361.066376 121.597641,346.251404 
	C125.653496,341.390198 129.576309,336.383270 133.998169,331.872589 
	C137.918610,327.873413 143.140045,325.345825 147.237671,320.839661 
	C148.708969,322.601837 150.154236,323.857513 152.277405,322.022614 
	C154.031631,320.506561 156.253891,319.527130 157.985687,317.990814 
	C173.564041,304.171265 191.445145,293.343964 207.319977,279.929413 
	C210.615540,277.144623 215.015747,276.909637 218.252274,274.097595 
	C225.797104,267.542328 232.724579,260.496674 238.884155,252.562454 
	C248.208878,240.551117 259.586853,230.438431 270.722412,220.157578 
	C282.482452,209.300171 294.891144,199.214569 307.921875,189.899155 
	C312.766907,186.435516 315.451202,180.693939 321.152405,177.182892 
	C325.078339,174.662491 328.499481,172.521271 331.920593,170.380066 
	C327.646912,171.627121 323.729797,173.410477 321.011505,177.014587 
	C316.162354,178.304214 312.836365,182.559616 307.521942,184.085373 
	C308.213684,181.769577 309.746399,180.804886 311.179016,179.827652 
	C336.924225,162.266235 362.899994,145.156891 391.561066,132.472656 
	C419.084412,120.291931 447.539948,111.214569 476.886292,104.709778 
	C525.944336,93.835808 575.662903,90.561371 625.747192,91.774643 
	C683.627686,93.176773 736.995422,109.412132 784.920532,142.091248 
	C805.004761,155.786224 823.875854,171.129349 842.024048,187.418549 
	C877.891724,219.612198 906.407593,257.459198 930.160034,299.121399 
	C934.783081,307.230286 938.702332,315.690186 941.385742,324.686401 
	C942.776917,329.350372 946.303345,333.095856 947.875061,337.547852 
	C956.616272,362.307495 965.435791,387.083099 968.090881,413.473602 
	C968.136719,413.929291 967.868652,414.416565 967.766174,414.814789 
	C965.412354,416.118011 966.164429,412.745667 964.150879,412.864746 
	C971.551208,437.438660 967.426819,462.058685 964.831299,486.620789 
	C964.322327,491.437439 961.568604,495.848724 958.456909,500.007660 
	C958.619690,492.715973 960.333008,485.501740 958.448303,478.859161 
	C957.218384,482.930725 958.335754,488.105957 955.238708,492.543396 
	C955.333069,482.295593 954.378906,472.271057 951.816223,462.290344 
	C949.114319,464.895233 948.148926,471.961670 948.270508,485.161224 
	C948.342834,493.007172 949.974121,500.512512 953.052185,507.621216 
	C951.300110,508.529480 950.720459,507.526642 950.216431,506.738953 
	C945.688293,499.661774 941.729858,492.228119 941.319275,483.692627 
	C940.072876,457.779388 933.501709,432.506256 931.672668,406.813324 
	C930.681641,392.892151 928.109680,379.575348 924.506348,366.529358 
	C918.940491,346.378021 912.385681,326.471344 902.162170,307.905579 
	C894.145996,293.348450 886.414368,278.630737 878.046570,264.264679 
	C872.402283,254.574387 866.228638,244.967331 857.866638,237.666702 
	C822.101746,206.441315 789.637634,171.211395 747.992615,147.054977 
	C720.869324,131.321945 691.671326,121.684288 661.164551,115.250313 
	C648.812317,112.645172 636.621094,109.678238 623.916321,108.920113 
	C612.580017,108.243629 601.257935,108.030449 589.966492,108.602272 
	C570.529419,109.586624 551.102661,110.986076 531.775208,113.365929 
	C484.035797,119.244278 438.014740,131.348129 394.403992,151.918304 
	C368.433044,164.168152 343.939972,178.972549 319.990601,195.937195 
	C316.882141,198.881027 313.272461,200.102737 310.984436,203.033997 
M720.496521,519.546204 
	C724.108643,521.414429 727.976990,521.518494 731.896118,521.307129 
	C728.022705,520.030762 724.110413,519.012268 719.441223,518.563843 
	C712.506775,515.909424 705.427979,513.824158 698.015686,513.043152 
	C705.455078,514.618652 712.296753,518.413330 720.496521,519.546204 
M414.894592,194.447098 
	C404.897369,198.709320 395.547516,204.481293 384.996857,207.888443 
	C383.334839,204.244125 385.564270,202.424652 387.525299,201.272110 
	C390.882874,199.298798 394.487061,197.172440 398.226196,196.555237 
	C403.833496,195.629684 407.002045,191.111298 412.381744,189.482391 
	C410.636597,188.179443 409.771057,189.093903 408.932678,189.406250 
	C395.971985,194.234985 383.332672,199.847748 370.862305,205.789917 
	C344.240570,218.475235 319.871521,234.792496 297.661285,254.066193 
	C272.349304,276.031555 248.022354,299.018555 231.763214,329.068359 
	C221.613174,347.827515 211.482224,366.574219 204.365387,386.756744 
	C203.749680,388.502777 202.261246,390.651825 204.261871,392.298157 
	C205.931519,393.672119 208.121918,393.152679 210.003616,392.421844 
	C211.529495,391.829193 213.098877,391.098145 214.336319,390.056915 
	C219.514603,385.699890 225.249207,383.493530 232.168396,383.825958 
	C240.270035,384.215179 248.489151,385.116302 256.276398,381.490692 
	C258.260437,380.566956 260.515625,381.097015 262.688354,381.376862 
	C273.321289,382.746368 280.230835,391.184357 289.363861,395.422455 
	C291.784302,396.545624 293.869720,398.074463 296.704712,397.967377 
	C304.159058,397.685791 311.154388,399.938354 318.157166,402.062775 
	C320.761719,402.852936 323.129913,404.213226 324.628632,406.517670 
	C327.726379,411.280853 331.086487,415.800446 335.116241,419.831940 
	C338.158905,422.875854 338.224915,426.285980 335.808441,429.779175 
	C333.057190,433.756256 330.172211,437.617096 326.683380,441.006714 
	C324.952667,442.688232 322.416351,444.167786 323.485352,447.203674 
	C324.582031,450.318176 327.063019,451.960632 330.264648,452.398621 
	C338.269592,453.493622 345.967377,453.581024 351.572998,446.186707 
	C352.534424,444.918427 354.129150,444.076782 355.536926,443.209442 
	C362.213531,439.095947 369.791016,435.147186 372.655243,427.804901 
	C375.925659,419.421265 382.008362,416.695923 389.537445,415.039948 
	C391.799988,414.542297 393.760590,413.788422 394.683319,411.590790 
	C398.270233,403.047638 406.239624,399.183594 413.654968,395.765472 
	C419.561432,393.042877 424.745178,390.082306 429.126007,385.396942 
	C435.047302,379.064056 442.205872,377.980499 450.169098,380.846252 
	C454.086945,382.256165 457.986267,383.721191 461.930206,385.054077 
	C466.302185,386.531555 471.503387,387.571777 475.107971,385.358215 
	C482.748199,380.666443 491.715485,382.007324 499.471954,378.541595 
	C500.952911,377.879852 502.724518,377.567566 504.042480,379.640564 
	C502.326721,382.028656 499.627502,383.028534 497.110565,384.100983 
	C490.835907,386.774658 484.461151,389.212555 478.140808,391.780243 
	C476.089447,392.613617 473.528229,393.134338 474.562592,396.899384 
	C485.745697,393.166748 496.767792,389.526001 509.223663,388.286469 
	C506.408813,386.181122 503.611053,388.138977 501.568787,385.592804 
	C507.270325,383.790192 512.371948,382.242126 518.179565,382.300507 
	C538.524231,382.505188 557.618225,387.989868 576.432251,394.949524 
	C597.091736,402.591949 611.311523,416.129761 617.205627,438.015228 
	C621.422058,453.671295 621.251892,469.239563 618.638733,484.980072 
	C617.598145,491.248077 618.437988,492.706390 624.547485,491.390167 
	C638.980286,488.280823 653.554382,488.813904 668.127136,488.615479 
	C672.032410,488.562286 675.930908,488.010620 679.832520,487.687775 
	C679.855408,487.401520 679.878296,487.115265 679.901184,486.828979 
	C669.418945,485.792206 658.936768,484.755463 648.454529,483.718689 
	C648.461121,483.264465 648.467651,482.810272 648.474182,482.356049 
	C654.675354,481.790527 660.871094,480.817047 667.078613,480.734924 
	C686.713135,480.475128 706.226318,483.615967 725.934326,482.729462 
	C732.679138,482.426086 739.503296,481.897766 746.331970,482.409088 
	C757.271912,483.228210 767.941162,486.164154 779.039062,485.918915 
	C789.200928,485.694366 799.208801,487.444794 809.206543,489.444580 
	C815.732605,490.749939 822.409851,491.502502 829.278992,493.453400 
	C828.885803,490.901123 828.934814,488.982452 828.277771,487.347443 
	C825.634155,480.768097 821.180603,474.848511 821.197205,467.309021 
	C821.198425,466.740204 820.695068,465.973450 820.197571,465.633148 
	C817.471802,463.768799 816.530396,460.898193 816.044434,457.943176 
	C815.426025,454.183350 813.785950,454.031799 810.946045,455.851196 
	C804.345215,460.080078 797.521057,463.925873 790.254639,466.899109 
	C788.547363,467.597717 786.859192,469.140625 784.380249,467.808350 
	C785.534790,466.114807 787.265686,465.556580 788.809875,464.707001 
	C793.182983,462.300995 797.727661,460.129852 801.823853,457.312469 
	C812.241882,450.146851 812.158630,450.026062 807.499207,438.443665 
	C807.374878,438.134583 807.230469,437.828430 807.151245,437.507111 
	C806.275635,433.955475 803.993164,433.621765 801.037415,434.822815 
	C795.793396,436.953583 790.545593,439.075226 785.310974,441.228760 
	C784.008789,441.764465 782.863708,441.890259 783.083679,444.239746 
	C783.368042,447.277161 781.184265,448.519135 778.761169,446.046478 
	C777.024475,444.274384 775.476624,444.566925 773.387085,444.866272 
	C765.563538,445.987122 758.466309,449.288849 751.210571,452.044769 
	C743.303955,455.047943 735.099304,452.619415 727.080444,453.912262 
	C722.544006,454.643677 722.457092,449.003540 719.902283,446.467651 
	C715.378662,448.843231 711.692078,452.321136 707.016479,454.147186 
	C704.731445,445.758057 699.893799,443.405914 692.528625,446.798920 
	C686.179382,449.723816 679.317810,451.855560 673.555237,455.659637 
	C665.134888,461.218323 664.776245,448.790985 658.582642,449.792358 
	C657.046021,450.040802 656.802795,447.705444 656.573181,446.214020 
	C656.421143,445.226501 656.155151,444.254272 656.041809,443.263550 
	C655.824158,441.361938 655.057251,439.811035 653.630310,438.486755 
	C651.451660,436.464722 649.229675,434.536530 648.300964,431.431488 
	C647.737427,429.547577 646.096558,429.339264 644.221191,430.343628 
	C641.293396,431.911621 638.284790,433.360748 635.210022,434.613922 
	C631.442139,436.149628 627.698486,435.805054 624.195923,433.680328 
	C622.122925,432.422852 621.124512,430.644073 621.994934,428.190155 
	C623.570862,423.747253 628.864990,420.355988 633.729980,420.766602 
	C636.212097,420.976044 638.673401,421.423981 641.148071,421.732025 
	C646.157349,422.355560 649.796570,419.910065 650.832031,415.250122 
	C652.692261,406.878510 655.485046,404.546021 664.073669,404.082153 
	C665.730164,403.992645 667.390442,403.776703 669.023438,403.479126 
	C677.976074,401.847809 680.889526,403.363892 683.591248,411.889130 
	C684.717041,415.441345 686.817566,417.646179 690.141174,418.824402 
	C698.613098,421.827698 707.186340,421.643036 715.672424,419.045776 
	C719.379028,417.911346 722.595276,415.795197 724.458313,412.094360 
	C726.480713,408.076996 728.772156,404.187347 730.641968,400.102692 
	C733.104187,394.724091 733.751099,389.135315 730.701782,383.750519 
	C726.444031,376.231873 722.184387,368.878326 714.758118,363.607269 
	C707.393555,358.380035 704.514832,345.657959 707.676453,337.287231 
	C709.128662,333.442169 710.343872,329.078369 708.241028,325.639160 
	C703.520020,317.918030 705.032349,310.246582 707.100952,302.466492 
	C708.054749,298.879639 708.393005,295.468842 706.135986,292.428253 
	C702.726624,287.835144 701.676025,282.387909 700.428650,277.086639 
	C699.505249,273.162201 698.781372,269.142151 701.685425,265.192627 
	C704.126038,261.873535 702.837097,258.561066 699.342468,256.242188 
	C696.578003,254.407745 693.888550,252.460449 691.160522,250.570908 
	C690.027161,249.785904 688.469849,248.122467 689.500183,247.492874 
	C693.049072,245.324478 692.965088,240.216385 697.645630,238.833084 
	C704.555481,236.790909 711.184509,233.818268 717.866211,230.359909 
	C717.296326,230.054611 717.129761,229.888641 717.022949,229.920837 
	C716.393921,230.110443 715.784058,230.362656 715.158142,230.564041 
	C700.651123,235.231720 687.646301,244.801163 671.364990,243.782394 
	C668.908691,243.628708 666.368225,244.675659 664.478821,242.321136 
	C662.608948,239.990936 663.150208,237.704483 664.707886,235.429382 
	C665.166565,234.759430 665.680420,233.904434 665.648926,233.156189 
	C665.331238,225.619873 671.091797,223.309067 676.391663,220.825958 
	C681.227844,218.560104 686.427246,217.053635 691.203674,214.104019 
	C688.854065,211.991058 687.102783,211.500977 684.459351,212.652878 
	C673.639587,217.367645 663.732788,224.114532 652.174500,227.195038 
	C651.284912,227.432114 650.569824,228.320389 649.771179,228.902542 
	C645.099060,232.308044 639.718018,234.416504 634.629944,237.046295 
	C632.270935,238.265564 630.701172,237.233139 631.141235,234.341187 
	C631.289185,233.368759 631.880859,232.429916 630.452026,231.419846 
	C627.459717,231.903458 626.092957,235.032150 623.613403,236.519119 
	C620.347290,238.477722 617.756165,238.139664 615.987488,234.562042 
	C618.490417,230.826340 623.648682,233.614288 625.787720,230.201431 
	C628.109436,226.497055 627.246521,223.021011 622.819336,220.020782 
	C634.355042,210.917389 648.215332,207.558929 659.691589,199.913284 
	C641.355957,207.735992 623.175659,215.881653 605.020325,224.082520 
	C602.624634,225.164673 602.376221,226.974838 603.187073,229.483337 
	C604.731506,234.260849 602.640808,237.046570 597.895020,237.084656 
	C584.073242,237.195602 570.754822,227.325211 566.898132,214.139832 
	C565.966858,210.956131 564.126465,209.730484 560.906616,211.425247 
	C559.518616,212.155792 558.124390,213.345764 556.084412,212.023682 
	C562.106812,204.913010 570.182312,202.128677 578.772888,200.837387 
	C584.047424,200.044540 589.683655,199.786133 591.830872,206.707047 
	C592.193359,207.875534 593.768494,207.936646 594.516235,208.586365 
	C597.546387,211.219437 603.526062,209.247803 604.056519,215.620773 
	C619.368835,208.971954 634.095703,202.577362 649.416626,195.924835 
	C648.111511,195.013367 647.630615,194.509125 647.043579,194.292221 
	C632.499756,188.918716 617.555725,184.937805 602.450134,181.519897 
	C599.906860,180.944427 598.553101,182.625214 596.885559,184.065750 
	C589.240417,190.670135 581.171143,196.497147 570.266296,195.317017 
	C565.703857,194.823288 561.629395,195.876495 557.994568,198.480774 
	C554.674927,200.859238 550.836243,200.966660 547.068420,201.523361 
	C546.181580,201.654419 545.388367,201.571701 544.923035,200.715164 
	C544.457581,199.858444 544.691162,198.814423 545.414307,198.498383 
	C551.146240,195.993484 552.520996,188.953796 558.361816,186.380157 
	C560.929749,185.248688 563.500061,182.929489 562.798645,179.273743 
	C562.069580,175.473877 559.139282,174.559784 555.805054,174.011963 
	C532.970276,170.260086 510.051697,170.524170 487.082916,172.347992 
	C484.932343,172.518768 484.036713,174.149200 482.697388,175.237625 
	C474.691589,172.427063 466.852722,174.895050 459.002197,175.736603 
	C442.698090,177.484360 430.016083,187.899261 414.894592,194.447098 
M473.675293,440.184113 
	C470.907410,444.340363 468.025574,448.425812 465.391174,452.665009 
	C453.789398,471.334106 452.627533,490.846466 461.351624,510.861877 
	C467.477570,524.916504 478.514618,533.843384 492.670898,539.156738 
	C498.009277,541.160400 502.866699,539.914673 507.290436,536.679871 
	C509.525696,535.045349 510.237152,533.101929 507.618774,531.009705 
	C504.679871,528.661377 501.798218,526.454041 497.771362,528.801697 
	C496.877899,529.322571 495.698059,529.995728 494.159607,528.392761 
	C497.707367,524.752991 501.254761,521.093567 504.831604,517.463135 
	C505.440857,516.844788 506.360840,516.406799 507.099426,516.922424 
	C512.326721,520.571716 518.517090,518.091736 524.095276,519.666748 
	C527.696045,520.683472 532.158813,519.573303 533.648010,516.845947 
	C536.694580,511.266663 541.396729,507.935822 546.063843,504.217041 
	C549.258057,501.671875 551.903625,498.477356 553.440857,494.345703 
	C550.892273,494.245575 550.089539,498.202271 547.240417,496.512451 
	C546.662354,494.200562 548.502319,493.169403 549.677063,491.937378 
	C553.239929,488.201019 556.938232,484.594025 560.574585,480.927521 
	C565.927429,475.530548 567.011719,470.617859 563.899414,463.743042 
	C555.705688,445.643829 541.750671,434.167786 522.889587,428.342773 
	C509.952698,424.347351 496.463043,423.123932 483.315094,420.204437 
	C480.848938,419.656830 478.075653,419.871918 475.090332,416.955078 
	C486.935150,416.396973 497.577637,417.730011 508.221008,418.336304 
	C519.145142,418.958618 529.543396,422.386993 541.135742,426.236084 
	C538.526489,419.533417 535.395203,414.883575 532.413025,410.176605 
	C531.945068,409.438019 530.796997,408.918823 529.871277,408.713623 
	C517.005859,405.862030 504.071808,403.803558 490.794708,404.667389 
	C483.605957,405.135071 476.449860,405.640808 469.577759,407.946869 
	C469.246216,406.580170 470.784058,406.369781 469.893066,405.227234 
	C463.592041,408.634857 459.966278,415.135834 453.940887,418.737793 
	C448.179535,422.181915 442.979614,426.858826 435.799377,427.280182 
	C438.379150,423.984131 443.055878,423.979218 446.304047,420.311432 
	C442.715912,420.525574 441.094666,418.467590 439.165955,416.942657 
	C438.143372,416.134186 437.252625,414.415680 435.946503,414.864136 
	C428.967346,417.260315 430.516266,411.203156 429.129089,407.974091 
	C429.942627,408.349609 430.756165,408.725128 432.086182,409.339020 
	C429.821106,406.236420 427.884430,403.583618 426.204163,401.282043 
	C420.074707,401.639984 416.045563,405.016449 412.392761,409.446686 
	C417.707520,415.363159 425.158997,418.301788 430.255341,424.219238 
	C423.103607,421.917816 416.137665,419.340637 409.478546,416.127533 
	C406.071716,414.483704 403.793762,414.999298 400.964539,417.155518 
	C384.936401,429.370880 368.790344,441.431671 352.169922,452.840363 
	C351.637360,453.205994 351.095062,453.647308 351.467285,454.685364 
	C355.837677,456.424255 360.601959,457.049744 365.368683,457.702698 
	C373.278900,458.786285 381.494720,458.997253 388.894257,461.870331 
	C393.879456,463.805969 398.593781,466.180298 404.000580,466.573273 
	C406.713989,466.770508 409.034760,467.667389 410.931335,469.605225 
	C409.801910,471.852905 406.934082,471.361694 405.674408,473.364502 
	C410.179138,474.375763 414.568329,475.238953 418.888794,476.365784 
	C423.093140,477.462372 425.529755,476.748962 426.923065,471.932495 
	C430.376587,459.993683 436.185913,449.129425 443.732483,439.226471 
	C449.454803,431.717407 456.468658,426.000946 465.962341,424.176300 
	C468.855591,423.620239 471.981262,422.368805 474.981689,424.068420 
	C474.675171,425.646393 473.530212,425.723969 472.645844,425.911072 
	C466.580811,427.194183 461.286530,430.081604 457.224243,434.607483 
	C453.533539,438.719269 448.737518,442.863892 452.076691,449.574554 
	C452.131134,449.683990 452.021362,449.898285 451.949036,450.044189 
	C448.917084,456.161926 449.152802,463.211823 446.424469,469.420013 
	C446.026031,470.326660 445.365509,471.464203 445.609436,472.252594 
	C447.636139,478.802795 445.571655,485.204956 445.337830,491.747192 
	C449.431030,480.611511 448.331268,467.930176 455.359039,457.705933 
	C462.008453,448.032074 467.860199,437.578766 479.239929,432.470520 
	C478.724152,435.837891 475.794769,437.244720 473.675293,440.184113 
M248.576797,428.728790 
	C243.093201,429.832001 238.025116,428.435272 232.945053,426.927856 
	C233.450058,424.700928 235.678162,424.624542 235.632309,422.875854 
	C234.932312,422.393066 233.732040,423.119507 233.539169,421.685638 
	C234.050644,420.587219 234.762497,419.435089 235.131989,418.182007 
	C235.784012,415.970825 236.854431,413.240051 234.371353,411.827026 
	C231.804260,410.366180 230.804337,413.406799 229.307220,414.744751 
	C226.817795,416.969513 226.202103,420.772003 223.179581,422.698212 
	C221.789978,420.957916 223.116241,419.161621 222.319656,417.427124 
	C219.721268,420.649597 220.462860,425.088074 217.543335,428.662201 
	C216.106506,423.998169 218.174744,420.872314 219.732224,417.659454 
	C221.288925,414.448151 223.751709,411.637115 224.307678,407.718506 
	C221.331314,406.614929 219.779053,408.778625 217.929718,409.926788 
	C211.506500,413.914734 209.421539,421.543549 204.010788,426.483887 
	C198.253723,431.740479 193.223145,437.998138 185.363968,440.143829 
	C180.436569,441.489075 178.389130,443.508850 178.309296,449.627319 
	C195.911530,451.209381 213.548096,449.205505 231.162308,450.238739 
	C229.267334,447.719818 225.557465,449.066528 224.037582,445.565796 
	C228.294342,443.540283 232.154816,445.583496 235.942184,445.880249 
	C251.588409,447.106262 267.241028,446.845093 282.902252,446.635956 
	C284.957977,446.608521 287.913361,445.336792 287.986816,449.363525 
	C288.003540,450.280792 288.996307,450.600616 289.823059,450.791840 
	C297.519379,452.571655 305.155334,451.844879 313.782776,450.900208 
	C309.437775,442.187012 305.569244,434.429291 301.701569,426.673340 
	C298.092041,428.048615 296.331970,430.382599 294.482056,432.426910 
	C290.242493,437.111908 285.347015,440.618256 279.274384,442.486908 
	C275.920746,443.518829 275.464935,443.524872 272.389618,441.278564 
	C277.555115,439.538452 277.042908,434.227844 279.791901,430.363647 
	C274.401703,431.288147 271.276306,435.668854 264.948486,436.716858 
	C272.766083,427.127380 277.511597,417.231262 283.277252,407.823578 
	C278.515167,409.179657 275.952454,413.029785 272.502289,415.711212 
	C268.804321,418.585297 265.259399,421.101776 260.281128,417.350372 
	C258.096161,422.885162 253.467194,425.378479 248.576797,428.728790 
M196.251328,613.621460 
	C196.913605,614.259644 196.979355,615.521423 198.247498,615.555664 
	C198.040207,613.121094 200.540817,611.632141 199.552628,608.547668 
	C193.555710,589.829468 189.565659,570.677490 188.562103,550.971252 
	C188.343979,546.688232 187.711349,542.426270 187.269653,538.154602 
	C182.960144,561.008850 185.492569,583.330933 190.760849,605.483643 
	C191.502625,603.371521 189.802689,601.112610 191.553482,598.590149 
	C194.256165,603.337402 193.935928,608.561584 196.251328,613.621460 
M509.046783,565.494629 
	C509.193878,565.242615 509.371338,565.001343 509.467102,564.731201 
	C509.491791,564.661499 509.281403,564.456360 509.142303,564.388367 
	C504.828644,562.278442 500.576538,560.023682 496.168701,558.132141 
	C493.407501,556.947266 492.284180,555.256531 493.029907,552.372620 
	C493.699554,549.783081 492.300293,548.915588 490.074860,548.213745 
	C483.499695,546.140320 477.673767,542.682312 472.487640,538.130554 
	C468.700531,534.806641 464.864532,531.538452 460.657898,527.906677 
	C461.079163,530.884521 462.314270,532.816284 463.423492,534.836182 
	C473.246033,552.722839 489.722321,560.801331 509.046783,565.494629 
M191.780823,378.737000 
	C195.104568,379.471924 195.483566,383.192291 198.449524,385.543091 
	C200.914841,378.183746 203.274673,371.332367 205.480087,364.431641 
	C206.098190,362.497589 205.375443,361.091888 203.008438,361.312775 
	C198.014893,361.778778 193.282700,362.615753 189.253433,366.219818 
	C183.279190,371.563751 183.344986,374.066376 190.265289,377.888214 
	C190.556793,378.049194 190.838898,378.227173 191.780823,378.737000 
M734.823669,257.329071 
	C728.009949,261.506348 721.583191,266.100525 717.359253,273.162659 
	C723.409546,271.362427 729.055298,268.953125 734.812134,266.847229 
	C740.638062,264.716064 746.573853,262.885193 752.586670,260.881104 
	C747.583374,252.367065 745.945923,251.851807 738.226624,255.802444 
	C737.339233,256.256561 736.410400,256.629822 734.823669,257.329071 
M709.097778,237.634689 
	C706.264404,239.253235 702.769531,239.545624 700.120789,241.887970 
	C701.950195,245.047668 703.002747,248.420502 705.853271,251.349091 
	C712.983948,246.882553 720.091919,242.430222 727.433289,237.831711 
	C724.392029,233.802292 721.409119,231.668365 716.695679,234.434036 
	C714.562073,235.685944 712.115356,236.404327 709.097778,237.634689 
M715.542847,262.677338 
	C723.379761,257.742218 731.216675,252.807114 739.051453,247.873337 
	C733.651978,239.365799 730.635925,239.042725 725.666870,246.258926 
	C727.211121,246.515427 728.451233,244.275314 730.728210,246.097122 
	C722.849670,250.431107 717.280273,256.916718 711.105225,263.209076 
	C712.103760,263.656311 712.446716,263.956757 712.679626,263.887482 
	C713.463440,263.654297 714.208069,263.289551 715.542847,262.677338 
M549.839844,430.697235 
	C549.702881,430.943237 549.527161,431.177795 549.449463,431.441284 
	C549.421082,431.537476 549.601196,431.734985 549.727966,431.831512 
	C557.476807,437.733124 563.798279,444.947876 569.239319,452.979980 
	C569.713440,453.679901 570.358459,454.212494 571.325745,453.876160 
	C574.508118,446.065277 573.395447,442.278107 566.635864,438.029694 
	C561.554382,434.835968 556.289124,432.044373 549.839844,430.697235 
M386.752747,471.726044 
	C392.286011,472.978424 397.785950,473.674835 403.455261,470.876648 
	C396.066284,468.410065 338.984283,463.537994 336.637054,465.649384 
	C341.053131,466.096497 344.985107,466.361328 348.876343,466.913239 
	C361.201752,468.661469 373.821625,468.052216 386.752747,471.726044 
M850.275635,688.766724 
	C858.494934,674.843567 867.141357,661.113831 870.183044,644.835083 
	C861.319031,667.866211 849.042725,688.971436 834.138123,708.615967 
	C840.321838,702.911072 845.314819,696.313293 850.275635,688.766724 
M566.891663,427.255341 
	C561.110779,422.719757 553.634277,421.168732 547.925903,416.449066 
	C546.699280,415.434875 544.850281,415.055664 543.244202,416.212769 
	C542.124695,417.019287 542.011414,418.174835 542.489990,419.336914 
	C543.228577,421.130280 544.487366,422.386719 546.523560,422.631012 
	C547.934204,422.800262 549.525574,421.833435 550.791443,423.344238 
	C550.434265,424.011749 550.074768,424.683624 549.572144,425.622894 
	C556.347412,425.911041 562.559570,428.046600 568.846313,429.831421 
	C569.106934,429.474396 569.367554,429.117371 569.628174,428.760345 
	C568.887390,428.369934 568.146667,427.979492 566.891663,427.255341 
M301.321075,462.565521 
	C300.079224,462.837952 298.837372,463.110382 297.595520,463.382812 
	C304.767212,462.992462 311.876801,465.141418 319.130859,464.458649 
	C318.714783,460.964233 316.619171,461.499268 314.900909,461.345551 
	C310.570404,460.958130 306.360413,461.968018 301.321075,462.565521 
M399.196930,410.222015 
	C405.263824,406.835785 410.496033,402.346283 415.820251,397.968445 
	C409.872711,401.502899 404.261230,405.491394 398.671509,409.510223 
	C398.566559,409.585693 398.720032,410.020691 399.196930,410.222015 
M690.469727,221.792847 
	C696.733643,219.854996 696.733643,219.854996 698.994324,217.345917 
	C693.398071,219.008194 688.338867,219.393158 683.217773,223.808212 
	C686.309570,222.968826 688.035034,222.500397 690.469727,221.792847 
M716.543274,212.712814 
	C715.367615,213.332779 713.750427,213.149170 712.435059,215.155075 
	C718.663940,213.777374 724.180115,212.595963 729.148926,209.546432 
	C725.183105,210.530579 721.217285,211.514709 716.543274,212.712814 
M573.905212,424.553101 
	C576.341064,426.477509 578.064758,429.084442 580.088684,431.395813 
	C577.244568,425.321808 572.670227,421.157288 566.186646,419.185242 
	C568.572327,420.828552 570.957947,422.471863 573.905212,424.553101 
M186.253922,513.171021 
	C186.032272,515.135742 184.851318,517.041809 185.656540,519.354797 
	C187.964905,517.045959 190.016602,514.924133 187.788971,511.856506 
	C186.927765,510.670502 186.543182,511.713348 186.253922,513.171021 
M776.974487,739.122559 
	C779.119263,737.091675 781.264099,735.060730 783.408875,733.029846 
	C783.368713,733.016174 783.328552,733.002563 783.288391,732.988892 
	C780.446350,735.737000 777.604309,738.485107 774.762268,741.233154 
	C774.730042,741.195984 774.697754,741.158813 774.665527,741.121643 
	C775.294006,740.598328 775.922485,740.074951 776.974487,739.122559 
M814.639587,730.611694 
	C817.354675,728.137939 820.069763,725.664185 822.784912,723.190430 
	C822.412476,722.840271 822.040100,722.490051 821.667664,722.139893 
	C819.350769,725.145996 815.877075,727.092834 814.639587,730.611694 
z"/>
<path fill="#000000" opacity="1.000000" stroke="none" 
	d="
M311.358826,203.013580 
	C313.272461,200.102737 316.882141,198.881027 319.782166,196.192169 
	C324.093231,195.175903 326.806915,191.272522 331.445099,191.598129 
	C325.229187,195.989502 319.079315,200.471313 311.358826,203.013580 
z"/>
</svg>