<svg version="1.1" id="Layer_1" xmlns="http://www.w3.org/2000/svg" xmlns:xlink="http://www.w3.org/1999/xlink" x="0px" y="0px"
	 width="100%" viewBox="0 0 1024 1024" enable-background="new 0 0 1024 1024" xml:space="preserve">
<path fill="#000000" opacity="1.000000" stroke="none" 
	d="
M372.112030,526.993896 
	C372.266998,481.508759 372.604675,436.522034 372.495819,391.536377 
	C372.444275,370.227417 372.682220,348.912903 372.386536,327.615387 
	C372.186310,313.193237 381.298859,300.085693 399.737152,299.946991 
	C408.901520,299.878052 418.066864,299.935089 427.231750,299.936005 
	C492.885742,299.942627 558.539734,299.942871 624.193726,299.961243 
	C639.013550,299.965363 648.297485,305.825531 652.406372,317.705933 
	C653.732971,321.541382 653.865784,325.557739 653.867493,329.543762 
	C653.913330,436.356415 653.991760,543.169128 653.905701,649.981689 
	C653.877563,684.931458 635.945312,710.710754 604.286682,722.129150 
	C596.353333,724.990540 588.068359,725.899475 579.719727,725.911255 
	C520.064697,725.995239 460.408905,725.846130 400.754761,726.098206 
	C381.957123,726.177612 371.951874,712.949158 372.391907,697.903809 
	C373.088226,674.095581 373.010284,650.241638 372.458527,626.425598 
	C371.694427,593.443726 372.770538,560.467163 372.112030,526.993896 
M586.500000,317.251007 
	C524.678223,317.255890 462.856476,317.252502 401.034729,317.274811 
	C392.105621,317.278046 389.329865,320.034485 389.329132,328.863953 
	C389.319153,451.840851 389.320160,574.817749 389.333435,697.794617 
	C389.334320,705.772583 392.236908,708.694946 400.127106,708.697571 
	C460.948975,708.718018 521.770874,708.772217 582.592712,708.701477 
	C611.641602,708.667725 636.597839,683.865479 636.626953,654.703918 
	C636.735901,545.724487 636.678528,436.744934 636.663025,327.765411 
	C636.661926,320.185699 633.715210,317.307098 625.992676,317.276062 
	C613.161926,317.224487 600.330933,317.255310 586.500000,317.251007 
z"/>
<path fill="#000000" opacity="1.000000" stroke="none" 
	d="
M371.864319,223.595810 
	C375.022278,234.708801 372.320709,243.867355 363.601074,250.673386 
	C355.520721,256.980438 346.469391,257.445862 337.385742,252.661758 
	C328.529083,247.997177 323.337524,237.476730 324.920959,227.994003 
	C326.746582,217.061111 334.438599,209.333878 345.255493,207.566345 
	C355.444824,205.901367 365.403503,210.847885 370.299133,220.034103 
	C370.844208,221.056915 371.252625,222.152527 371.864319,223.595810 
M355.758087,242.427765 
	C356.863403,241.423264 358.090790,240.522873 359.052246,239.395676 
	C362.630463,235.200577 362.851227,228.734009 359.677979,224.077484 
	C356.713379,219.727081 350.574310,217.466095 345.630890,218.904099 
	C338.055328,221.107742 334.470734,228.246780 336.777161,235.795364 
	C338.754974,242.268616 348.331940,247.460938 355.758087,242.427765 
z"/>
<path fill="#000000" opacity="1.000000" stroke="none" 
	d="
M371.997131,819.660156 
	C367.392975,805.065125 374.186310,791.509460 387.793671,787.473022 
	C400.521667,783.697449 413.941681,791.124084 417.685486,804.015259 
	C421.200562,816.118835 414.833588,828.965820 403.154816,833.334839 
	C390.498169,838.069641 378.338074,832.849426 371.997131,819.660156 
M384.980835,819.497498 
	C390.591217,824.431702 396.340881,825.122559 401.697052,821.505981 
	C406.430786,818.309631 408.657135,812.287415 407.047882,807.133667 
	C405.250092,801.376221 400.965637,798.304932 395.360748,797.695251 
	C390.465027,797.162781 386.253601,799.468323 383.552643,803.727966 
	C380.244202,808.945679 380.583862,814.092957 384.980835,819.497498 
z"/>
<path fill="#000000" opacity="1.000000" stroke="none" 
	d="
M699.833740,616.006226 
	C692.917786,604.167725 694.643188,591.339172 703.942444,583.596680 
	C713.253784,575.844116 726.596069,575.970520 735.587097,583.896362 
	C746.165710,593.221741 746.547485,609.683533 736.410828,619.417908 
	C725.634888,629.766235 709.777832,628.412048 699.833740,616.006226 
M721.949951,589.310547 
	C720.955994,589.269592 719.959290,589.159119 718.968567,589.198792 
	C711.801086,589.486206 706.353455,595.079102 706.410461,602.057190 
	C706.469543,609.289246 712.199158,614.919861 719.513062,614.933350 
	C726.193420,614.945557 731.326050,610.699768 732.522583,604.171631 
	C733.675049,597.883484 729.968567,592.286072 721.949951,589.310547 
z"/>
<path fill="#000000" opacity="1.000000" stroke="none" 
	d="
M729.592285,379.955811 
	C718.664551,383.941010 708.582153,381.829285 701.821228,374.382233 
	C695.260315,367.155426 693.638489,356.219543 697.815674,347.374023 
	C701.843567,338.844604 711.412109,333.240906 720.988220,333.803375 
	C731.507202,334.421265 740.887268,342.287903 743.139038,352.380066 
	C745.663086,363.692139 740.979980,373.417725 729.592285,379.955811 
M729.806641,349.764923 
	C728.817261,348.882172 727.920227,347.857971 726.822571,347.141205 
	C722.173157,344.105316 715.620300,344.393005 711.349243,347.719696 
	C707.068909,351.053619 705.380310,356.943542 707.234680,362.071472 
	C709.426453,368.132416 713.779907,370.908997 720.234802,370.893890 
	C729.979919,370.871094 736.528381,358.903503 729.806641,349.764923 
z"/>
<path fill="#000000" opacity="1.000000" stroke="none" 
	d="
M312.000000,349.247894 
	C298.346100,349.240387 285.192230,349.222656 272.038330,349.232758 
	C269.054382,349.235046 266.109192,348.778564 264.926605,345.716400 
	C263.697693,342.534241 264.572815,339.635956 268.151306,338.527161 
	C270.009399,337.951416 272.086487,337.924561 274.065247,337.920410 
	C295.377808,337.875641 316.690460,337.884338 338.003113,337.881012 
	C339.002014,337.880859 340.003113,337.866882 340.999390,337.925079 
	C344.685547,338.140289 347.851410,339.454285 347.821594,343.625885 
	C347.792084,347.754547 344.753876,349.206421 340.972260,349.216858 
	C331.481567,349.243073 321.990753,349.239410 312.000000,349.247894 
z"/>
<path fill="#000000" opacity="1.000000" stroke="none" 
	d="
M300.000000,592.217651 
	C290.340088,592.211060 281.179596,592.262268 272.020447,592.174744 
	C266.907410,592.125916 264.218964,589.993774 264.484650,586.244141 
	C264.817902,581.541199 268.375183,580.839966 272.040192,580.829773 
	C294.689941,580.766846 317.339935,580.784119 339.989868,580.807617 
	C343.985077,580.811768 347.797913,581.912231 347.806946,586.589966 
	C347.816101,591.346252 343.982300,592.216980 339.971008,592.212585 
	C326.813995,592.198181 313.657013,592.213562 300.000000,592.217651 
z"/>
<path fill="#000000" opacity="1.000000" stroke="none" 
	d="
M575.016785,843.955444 
	C593.994141,843.957825 612.474426,843.948792 630.954773,843.968384 
	C637.879639,843.975769 640.876343,845.719177 640.937317,849.669006 
	C640.996826,853.519836 637.883179,855.297424 631.019897,855.297974 
	C609.709229,855.299744 588.398621,855.295410 567.087952,855.286194 
	C565.590454,855.285583 564.074768,855.362793 562.599243,855.165955 
	C559.618896,854.768311 557.707275,853.161926 557.539246,849.982849 
	C557.370605,846.790588 558.999634,844.771118 562.073120,844.472839 
	C566.199890,844.072388 570.368896,844.107483 575.016785,843.955444 
z"/>
<path fill="#000000" opacity="1.000000" stroke="none" 
	d="
M623.973999,205.990143 
	C605.018433,205.992432 586.557739,206.001007 568.097107,205.989243 
	C566.271118,205.988083 564.424927,206.010330 562.623779,205.762314 
	C559.388367,205.316833 557.504578,203.501328 557.647095,200.055176 
	C557.790649,196.583603 559.921387,195.074371 563.118530,194.775574 
	C564.438843,194.652176 565.777222,194.706940 567.107422,194.707062 
	C588.561707,194.709091 610.015991,194.710129 631.470276,194.730881 
	C633.128296,194.732498 634.833679,194.660339 636.433533,195.007355 
	C639.154785,195.597549 640.922607,197.441727 640.860107,200.269196 
	C640.799622,203.000443 639.344421,205.156799 636.405151,205.425629 
	C632.442383,205.788055 628.449097,205.818069 623.973999,205.990143 
z"/>
<path fill="#000000" opacity="1.000000" stroke="none" 
	d="
M454.152222,171.380219 
	C450.964294,172.490250 448.886749,171.365158 447.469727,168.983032 
	C445.982574,166.482941 446.887085,164.247849 448.500793,162.088181 
	C450.261841,159.731262 454.007202,158.365829 453.874908,155.302124 
	C453.756866,152.568329 450.341431,151.133072 448.571075,148.953857 
	C446.407562,146.290787 445.812286,143.520294 448.298126,140.888916 
	C450.824738,138.214355 453.632935,138.734314 456.295746,140.909927 
	C456.424438,141.015060 456.541443,141.134369 456.669250,141.240662 
	C463.093170,146.584976 463.100494,146.593384 469.178894,141.362289 
	C471.836029,139.075562 474.660309,137.878433 477.554443,140.738754 
	C480.369720,143.521179 479.517059,146.376312 477.279572,149.175003 
	C475.534668,151.357620 472.956573,152.840103 471.791351,155.627655 
	C473.138336,158.430969 475.899933,159.952255 477.702209,162.304184 
	C479.810181,165.054947 480.084442,167.834793 477.450439,170.326691 
	C474.972229,172.671265 472.449371,172.164078 469.833130,170.185806 
	C467.395569,168.342682 465.943237,164.103958 462.600403,164.898590 
	C460.031250,165.509262 458.042969,168.540436 455.777008,170.472565 
	C455.403351,170.791199 454.930145,170.993149 454.152222,171.380219 
z"/>
<path fill="#000000" opacity="1.000000" stroke="none" 
	d="
M799.006409,756.847046 
	C800.951111,759.243591 802.945679,761.252563 804.706909,763.448547 
	C806.835632,766.102844 807.138489,768.960754 804.535828,771.501892 
	C802.038330,773.940369 799.468201,773.263977 796.910583,771.355042 
	C794.531128,769.578979 793.112549,765.899231 790.136475,765.840576 
	C787.117310,765.781189 785.669189,769.464905 783.326965,771.266113 
	C780.604614,773.359802 777.860779,773.914307 775.327759,771.199890 
	C772.866150,768.562012 773.261292,765.722534 775.530762,763.143250 
	C777.382263,761.038879 779.387146,759.069397 781.394836,756.965881 
	C780.134338,753.807678 777.345276,752.298523 775.555359,749.980835 
	C773.613403,747.466309 772.798096,744.870911 775.171265,742.348816 
	C777.654663,739.709595 780.474182,740.250244 783.276489,742.098938 
	C785.735535,743.721130 787.029114,747.522583 790.234253,747.280273 
	C793.031372,747.068726 794.425964,743.726624 796.698853,742.071777 
	C799.435547,740.079285 802.294922,739.548035 804.804749,742.128479 
	C807.366821,744.762634 806.500000,747.555176 804.448486,750.198853 
	C802.728638,752.415161 800.028259,753.775513 799.006409,756.847046 
z"/>
<path fill="#000000" opacity="1.000000" stroke="none" 
	d="
M234.026428,699.391724 
	C236.713303,698.340149 238.131256,696.186584 239.979950,694.535950 
	C242.724518,692.085327 245.685165,690.592834 248.723831,693.738647 
	C251.700928,696.820618 250.284790,699.849304 247.831146,702.557068 
	C246.171844,704.388184 244.440140,706.153625 242.766022,707.921875 
	C243.863007,711.037781 246.473297,712.483093 248.278885,714.581726 
	C250.652603,717.340820 251.403915,720.259399 248.705948,723.029419 
	C245.865128,725.946045 242.979630,724.728882 240.366241,722.359497 
	C240.242935,722.247681 240.126648,722.128174 240.003738,722.015869 
	C234.184616,716.700195 234.155716,716.669800 228.538910,721.987183 
	C226.483597,723.932922 224.336548,725.322815 221.397171,724.300537 
	C217.663712,723.001953 216.685440,718.715332 219.314026,715.275635 
	C221.204758,712.801514 224.151581,711.208008 225.423691,708.133118 
	C223.999756,705.311829 221.345245,703.692627 219.463043,701.399780 
	C217.370224,698.850342 217.024002,696.270386 219.379608,693.799072 
	C221.724838,691.338684 224.394012,691.410217 226.954269,693.509460 
	C229.258713,695.398926 231.454956,697.420349 234.026428,699.391724 
z"/>
<path fill="#000000" opacity="1.000000" stroke="none" 
	d="
M743.304077,259.824219 
	C744.863831,257.491241 742.920532,256.622620 741.919739,255.459763 
	C740.511353,253.823425 738.756958,252.432922 737.597229,250.647186 
	C735.999146,248.186584 736.045532,245.493256 738.372864,243.411224 
	C740.510986,241.498474 743.497253,241.175552 745.117920,243.372513 
	C750.531128,250.710342 755.190613,249.758102 760.424622,243.181473 
	C762.123718,241.046570 765.063354,241.494446 767.169373,243.453827 
	C769.446472,245.572327 769.739075,248.193161 767.858276,250.630310 
	C765.941040,253.114548 763.654480,255.313705 761.501648,257.668243 
	C762.285461,260.945251 765.194641,262.404846 766.981689,264.715332 
	C769.164062,267.536957 770.101074,270.438904 767.146118,273.134796 
	C764.220032,275.804382 761.208496,274.912292 758.831482,272.214203 
	C757.073975,270.219421 755.717957,267.870941 753.825073,265.990601 
	C749.859802,268.108154 748.340942,270.869690 746.068726,272.735931 
	C743.599121,274.764252 740.928406,275.451263 738.429138,273.130432 
	C735.786377,270.676331 736.058472,267.764496 738.265015,265.111572 
	C739.751221,263.324768 741.478210,261.738159 743.304077,259.824219 
z"/>
<path fill="#000000" opacity="1.000000" stroke="none" 
	d="
M656.900269,843.944092 
	C659.987549,844.152771 662.900879,844.011108 664.486328,846.636597 
	C666.011230,849.161682 665.756165,851.793091 663.491455,853.886841 
	C661.172913,856.030334 651.535095,855.954712 649.214294,853.790527 
	C647.163635,851.878113 646.530151,849.510193 648.019287,847.028564 
	C649.950195,843.810364 653.285034,843.984192 656.900269,843.944092 
z"/>
<path fill="#000000" opacity="1.000000" stroke="none" 
	d="
M242.220947,591.066650 
	C238.168945,585.678528 239.886978,581.383362 245.998596,580.877014 
	C248.436935,580.675110 250.977890,580.763550 253.372849,581.229736 
	C256.251923,581.790222 258.107635,583.841919 257.920502,586.864868 
	C257.736481,589.836853 255.785858,591.800842 252.817902,592.024658 
	C249.402176,592.282288 245.892380,592.805725 242.220947,591.066650 
z"/>
<path fill="#000000" opacity="1.000000" stroke="none" 
	d="
M248.080399,337.901672 
	C249.512070,337.922058 250.508041,337.904572 251.498108,337.972931 
	C255.054306,338.218445 257.868500,339.839630 257.860107,343.584015 
	C257.850983,347.644104 254.842392,349.136444 251.076706,349.211426 
	C250.083267,349.231201 249.089203,349.243347 248.095703,349.232941 
	C242.714676,349.176636 239.576233,347.138702 239.816528,343.536407 
	C240.139923,338.687897 243.714005,337.956451 248.080399,337.901672 
z"/>
<path fill="#000000" opacity="1.000000" stroke="none" 
	d="
M661.111694,205.456573 
	C657.747498,206.072510 654.794617,206.123550 651.840637,205.534302 
	C649.033936,204.974472 647.383972,203.205856 647.324280,200.423874 
	C647.259033,197.378448 649.092041,195.406601 652.030884,194.939789 
	C654.290527,194.580856 656.641479,194.728119 658.950134,194.762665 
	C661.798645,194.805283 664.328674,195.731476 665.093384,198.738724 
	C665.880676,201.834763 664.773621,204.267426 661.111694,205.456573 
z"/>
<path fill="#000000" opacity="1.000000" stroke="none" 
	d="
M830.806763,458.872375 
	C829.048889,455.333099 829.614258,451.958893 829.878296,448.694855 
	C830.120605,445.698883 832.039429,443.771057 835.176086,443.839081 
	C838.242432,443.905579 840.093262,445.653351 840.353210,448.800415 
	C840.517334,450.786896 840.635193,452.783417 840.636841,454.775543 
	C840.638855,457.195221 840.145813,459.544830 837.732788,460.697906 
	C835.231812,461.892975 832.875305,461.525574 830.806763,458.872375 
z"/>
<path fill="#000000" opacity="1.000000" stroke="none" 
	d="
M857.061707,467.681274 
	C854.141296,471.466949 845.443909,472.762726 842.056824,470.311951 
	C839.245300,468.277649 839.000854,464.425720 841.536621,462.112793 
	C843.908264,459.949524 853.429016,460.053650 855.725403,462.233582 
	C857.211792,463.644653 857.456299,465.370605 857.061707,467.681274 
z"/>
<path fill="#000000" opacity="1.000000" stroke="none" 
	d="
M169.258774,468.470520 
	C168.667953,462.412933 170.043884,460.807800 175.539749,460.688416 
	C177.700516,460.641479 179.899323,460.535828 182.018372,460.862305 
	C184.365616,461.223877 185.819000,462.871429 186.180618,465.253540 
	C186.545959,467.660278 185.508209,469.492218 183.439835,470.672943 
	C180.324539,472.451294 172.339279,471.366913 169.258774,468.470520 
z"/>
<path fill="#000000" opacity="1.000000" stroke="none" 
	d="
M185.615601,448.911072 
	C186.235855,445.173615 188.244858,443.391388 191.581055,443.917206 
	C194.856171,444.433411 196.239304,446.854706 196.271866,450.053192 
	C196.293884,452.216278 196.431870,454.406128 196.157578,456.537628 
	C195.765900,459.581543 193.856216,461.315796 190.728500,461.276398 
	C187.556183,461.236450 185.807159,459.436584 185.621445,456.307648 
	C185.483658,453.985870 185.589371,451.649597 185.615601,448.911072 
z"/>
<path fill="#000000" opacity="1.000000" stroke="none" 
	d="
M833.402344,487.960754 
	C829.749634,484.684052 828.459473,476.779968 830.633179,473.261688 
	C831.791687,471.386536 833.493164,470.554718 835.668701,470.748199 
	C837.637329,470.923309 839.376099,471.839050 839.869690,473.733948 
	C840.838074,477.452026 840.936829,481.354004 839.867798,485.018677 
	C839.074890,487.736847 836.560791,488.510498 833.402344,487.960754 
z"/>
<path fill="#000000" opacity="1.000000" stroke="none" 
	d="
M815.234619,461.823700 
	C818.898376,459.932983 822.440369,460.628418 825.852356,460.841522 
	C828.897034,461.031677 830.615784,463.120239 830.507996,466.241913 
	C830.409180,469.105255 828.744080,470.896179 825.909973,471.227753 
	C823.780579,471.476868 821.600647,471.437897 819.451111,471.344971 
	C813.362183,471.081726 811.546875,467.342285 815.234619,461.823700 
z"/>
<path fill="#000000" opacity="1.000000" stroke="none" 
	d="
M204.022308,460.672058 
	C205.962006,460.739868 207.518234,460.565369 208.933975,460.932556 
	C211.413681,461.575623 213.047836,463.366821 213.027344,465.954163 
	C213.005539,468.704163 211.508743,470.809753 208.639069,471.184509 
	C206.182388,471.505310 203.659393,471.379852 201.166946,471.350098 
	C197.857086,471.310638 195.607468,469.604950 195.460464,466.320099 
	C195.300888,462.754272 197.547150,460.908661 201.080551,460.698303 
	C201.909775,460.648926 202.743759,460.679718 204.022308,460.672058 
z"/>
<path fill="#000000" opacity="1.000000" stroke="none" 
	d="
M196.307404,478.121399 
	C196.266098,485.447449 194.494644,488.629944 190.546310,488.165009 
	C184.398392,487.441071 185.718887,482.500061 185.633728,478.519257 
	C185.588577,476.409393 185.226395,474.178955 186.955643,472.397614 
	C188.499512,470.807220 190.360413,470.259430 192.398743,470.940857 
	C195.592651,472.008606 196.414032,474.606750 196.307404,478.121399 
z"/>
<path fill="#000000" opacity="1.000000" stroke="none" 
	d="
M527.999878,546.381836 
	C494.183441,546.377869 460.866974,546.389893 427.550537,546.361877 
	C412.751251,546.349426 403.870758,537.619141 403.851837,522.787415 
	C403.781708,467.815399 403.777527,412.843170 403.818848,357.871063 
	C403.830139,342.842194 412.779266,333.898895 427.820282,333.886780 
	C484.624756,333.840912 541.429382,333.838257 598.233887,333.904266 
	C613.199646,333.921661 622.157776,343.009308 622.172302,357.975067 
	C622.210815,397.621613 622.273254,437.268433 622.164673,476.914703 
	C622.066833,512.663391 597.923096,540.937134 562.437988,545.823364 
	C551.310669,547.355591 539.822815,546.269226 527.999878,546.381836 
M413.198242,436.500458 
	C413.179108,465.493195 413.170959,494.485962 413.134521,523.478699 
	C413.122742,532.848694 417.746704,537.648804 427.225464,537.657593 
	C469.552246,537.696655 511.880432,537.876953 554.205505,537.601379 
	C586.716431,537.389771 612.584778,511.383575 612.769714,478.949188 
	C612.999634,438.626282 612.918884,398.301483 612.919678,357.977509 
	C612.919922,347.349579 608.697449,343.225342 598.002930,343.224213 
	C541.345459,343.218353 484.687988,343.225250 428.030518,343.249023 
	C417.260895,343.253540 413.225342,347.265259 413.211395,358.016510 
	C413.177856,383.844421 413.199341,409.672394 413.198242,436.500458 
z"/>
<path fill="#000000" opacity="1.000000" stroke="none" 
	d="
M503.099121,613.685913 
	C505.355011,615.299194 505.343781,617.319397 505.343018,619.342224 
	C505.339539,628.841614 505.250885,638.342224 505.378723,647.839905 
	C505.442719,652.593201 503.202240,654.435486 498.655365,654.337769 
	C493.158295,654.219543 487.656555,654.290222 482.157074,654.319763 
	C476.095428,654.352295 475.380127,655.072021 475.320557,661.319092 
	C475.268127,666.818298 475.211029,672.319885 475.315216,677.817444 
	C475.402649,682.432983 473.350952,684.511047 468.691650,684.451172 
	C459.360382,684.331360 450.026306,684.454956 440.694031,684.388000 
	C435.037354,684.347473 433.823669,683.063721 433.748993,677.161621 
	C433.673126,671.162903 433.596802,665.159607 433.750977,659.164246 
	C433.846252,655.459534 432.306641,654.157349 428.678528,654.267456 
	C422.518188,654.454468 416.346375,654.224609 410.181824,654.323242 
	C405.522980,654.397644 403.550507,652.235352 403.604645,647.629150 
	C403.716278,638.131104 403.714996,628.630005 403.611237,619.131836 
	C403.562164,614.637390 405.767181,612.772400 410.025421,612.774963 
	C416.358307,612.778748 422.692963,612.661926 429.023315,612.782532 
	C432.415955,612.847168 433.848083,611.540161 433.766357,608.075317 
	C433.617065,601.746033 433.782135,595.409973 433.713806,589.077820 
	C433.667267,584.762024 435.510284,582.598267 439.993805,582.636963 
	C449.658997,582.720459 459.325958,582.703613 468.991333,582.621765 
	C473.437256,582.584167 475.354095,584.709839 475.307159,589.046326 
	C475.242218,595.045166 475.542633,601.058044 475.227356,607.040649 
	C474.999756,611.359497 476.347046,612.875732 480.820251,612.867310 
	C488.111664,612.853638 495.459137,611.884949 503.099121,613.685913 
M459.238617,606.203491 
	C456.212677,603.997009 453.034180,601.418945 449.694611,605.374695 
	C447.352570,608.148865 444.438995,611.162048 443.768860,614.471130 
	C442.498291,620.744995 438.576202,621.869751 433.399384,622.086792 
	C430.196442,622.221130 427.478790,623.259399 426.500214,626.717163 
	C425.413513,630.556946 427.782654,632.692810 430.628937,634.347351 
	C435.129150,636.963379 438.729340,640.410400 442.290833,644.242554 
	C445.900604,648.126648 451.290802,652.938110 456.566986,650.142822 
	C464.101379,646.151123 471.523102,641.632202 478.600281,636.740723 
	C480.407928,635.491394 481.551056,633.179993 482.779297,631.218689 
	C484.273102,628.833496 483.708557,626.742859 481.264801,625.300903 
	C478.388031,623.603455 475.426117,622.119507 471.977966,621.963623 
	C468.759918,621.818115 466.428925,620.275818 466.081543,616.993530 
	C465.602570,612.468140 463.052948,609.392334 459.238617,606.203491 
z"/>
<path fill="#000000" opacity="1.000000" stroke="none" 
	d="
M537.162231,644.281433 
	C544.011475,636.169189 552.413025,632.948975 562.369690,635.416687 
	C571.805603,637.755371 578.096008,643.819153 580.428406,653.479004 
	C582.982727,664.058105 578.477783,674.793457 569.379944,680.119812 
	C560.019531,685.599792 548.299133,684.557190 540.580261,677.557800 
	C532.182922,669.943176 529.851440,658.570068 534.659058,648.432922 
	C535.297180,647.087463 536.171875,645.854248 537.162231,644.281433 
z"/>
<path fill="#000000" opacity="1.000000" stroke="none" 
	d="
M590.055054,592.825378 
	C600.154724,587.941772 609.311096,589.351379 617.341919,596.205566 
	C624.950745,602.699646 627.492615,611.333008 624.898804,621.000427 
	C622.228271,630.953979 615.246460,636.621460 605.305054,638.739014 
	C595.095154,640.913757 583.828003,634.857178 579.121826,624.747131 
	C574.349731,614.495483 577.360535,602.113403 586.357788,595.142151 
	C587.404236,594.331421 588.591064,593.701904 590.055054,592.825378 
M597.423950,602.784729 
	C587.527466,605.849121 582.592590,616.669556 591.578003,625.263611 
	C597.023560,630.471863 603.408569,631.308350 609.477722,627.033630 
	C616.045166,622.407959 618.418457,615.136475 615.392395,608.912109 
	C612.311401,602.574768 605.660461,600.089355 597.423950,602.784729 
z"/>
</svg>